<svg width="17" height="5" viewBox="0 0 17 5" fill="none" xmlns="http://www.w3.org/2000/svg">
<path fill-rule="evenodd" clip-rule="evenodd" d="M2.25 4.04672C3.2165 4.04672 4 3.26322 4 2.29672C4 1.33022 3.2165 0.546722 2.25 0.546722C1.2835 0.546722 0.5 1.33022 0.5 2.29672C0.5 3.26322 1.2835 4.04672 2.25 4.04672Z" fill="#2896CC"/>
<path fill-rule="evenodd" clip-rule="evenodd" d="M8.75 4.04672C9.7165 4.04672 10.5 3.26322 10.5 2.29672C10.5 1.33022 9.7165 0.546722 8.75 0.546722C7.7835 0.546722 7 1.33022 7 2.29672C7 3.26322 7.7835 4.04672 8.75 4.04672Z" fill="#2896CC"/>
<path fill-rule="evenodd" clip-rule="evenodd" d="M15.25 4.04672C16.2165 4.04672 17 3.26322 17 2.29672C17 1.33022 16.2165 0.546722 15.25 0.546722C14.2835 0.546722 13.5 1.33022 13.5 2.29672C13.5 3.26322 14.2835 4.04672 15.25 4.04672Z" fill="#2896CC"/>
</svg>
